<?xml version="1.0" encoding="UTF-8" standalone="no"?>
<svg
   xmlns:dc="http://purl.org/dc/elements/1.1/"
   xmlns:cc="http://creativecommons.org/ns#"
   xmlns:rdf="http://www.w3.org/1999/02/22-rdf-syntax-ns#"
   xmlns:svg="http://www.w3.org/2000/svg"
   xmlns="http://www.w3.org/2000/svg"
   id="svg8"
   version="1.1"
   viewBox="0 0 111.80009 38.200258"
   height="38.200249mm"
   width="111.80009mm">
  <defs
     id="defs2" />
  <metadata
     id="metadata5">
    <rdf:RDF>
      <cc:Work
         rdf:about="">
        <dc:format>image/svg+xml</dc:format>
        <dc:type
           rdf:resource="http://purl.org/dc/dcmitype/StillImage" />
        <dc:title></dc:title>
      </cc:Work>
    </rdf:RDF>
  </metadata>
  <g
     transform="translate(0,-258.7996)"
     id="layer1">
    <path
       id="rect831"
       d="M 1.6065947,260.86795 H 110.18732 v 34.40291 H 1.6065947 Z"
       style="fill:#eaeaea;fill-opacity:1;stroke:#000000;stroke-width:0.61294067;stroke-miterlimit:4;stroke-dasharray:none;stroke-opacity:1" />
    <path
       id="rect827"
       d="M 1.6101328,260.87149 H 36.005965 v 34.39583 H 1.6101328 Z"
       style="stroke-width:0.26458332" />
    <path
       d="m 12.887295,274.52833 q 2.9216,0 3.923292,2.17879 1.029516,2.17879 1.029516,4.77806 0,3.51665 -1.586012,5.619 -1.558186,2.06411 -4.785859,2.06411 -3.5059203,0 -5.1197565,-2.6757 -1.5860116,-2.67572 -1.5860116,-8.10359 0,-5.81012 1.8364344,-8.7534 1.8364344,-2.94329 5.2032307,-2.94329 1.363414,0 2.559879,0.19113 1.196465,0.19112 1.864259,0.49692 l -0.528671,4.05178 q -1.502537,-0.15289 -2.114682,-0.15289 -1.975558,0 -3.005075,0.99383 -1.0016912,0.95562 -1.1686398,3.5931 0.8347428,-0.64981 1.7807848,-0.99384 0.946042,-0.34401 1.697311,-0.34401 z m -1.530362,9.93835 q 1.892084,0 1.892084,-2.90505 0,-1.33785 -0.361722,-2.0259 -0.250423,-0.38225 -1.391238,-0.38225 -1.029516,0 -1.9755585,0.3058 -0.055645,0.68804 -0.055645,1.10851 0,1.60542 0.4730206,2.75216 0.4730208,1.14673 1.4190628,1.14673 z"
       style="font-style:normal;font-variant:normal;font-weight:normal;font-stretch:normal;font-size:medium;line-height:1.25;font-family:Lalezar;-inkscape-font-specification:Lalezar;letter-spacing:0px;word-spacing:0px;fill:#eaeaea;fill-opacity:1;stroke:none;stroke-width:0.81531674"
       id="path4538" />
    <path
       d="m 32.821998,284.16089 h -2.392929 v 4.51049 h -4.869335 v -4.51049 H 19.633061 L 18.687018,280.262 q 1.196465,-2.98151 3.116374,-6.65105 1.919908,-3.66955 3.756342,-6.72751 h 4.869335 v 12.84341 h 2.392929 z m -7.178789,-11.19976 q -1.586012,3.1344 -3.199848,6.76572 h 3.199848 z"
       style="font-style:normal;font-variant:normal;font-weight:normal;font-stretch:normal;font-size:medium;line-height:1.25;font-family:Lalezar;-inkscape-font-specification:Lalezar;letter-spacing:0px;word-spacing:0px;fill:#eaeaea;fill-opacity:1;stroke:none;stroke-width:0.81531674"
       id="path4540" />
    <path
       d="m 38.663957,266.87616 q 0,-0.11028 0.07088,-0.22056 0.07088,-0.11028 0.177201,-0.19298 0.141762,-0.0827 0.283523,-0.13785 0.141761,-0.0551 0.283522,-0.0551 h 1.701134 q 0.106316,0 0.212641,0.0551 0.141762,0.0276 0.248083,0.0827 0.106316,0.0551 0.177201,0.13785 0.07088,0.0827 0.07088,0.19299 v 6.28581 q 0.425284,-0.22056 0.956888,-0.3584 0.567045,-0.16542 1.098649,-0.16542 h 9.639756 q 0.212642,0 0.460724,0.0827 0.248082,0.0827 0.425284,0.24812 0.212641,0.13785 0.318962,0.30327 0.141761,0.16541 0.141761,0.35839 v 11.4413 q 0,0.22055 -0.141761,0.46868 -0.141761,0.22055 -0.389843,0.41354 -0.212642,0.16541 -0.496164,0.27569 -0.283523,0.11028 -0.567044,0.11028 H 40.506852 q -0.318963,0 -0.637925,-0.0827 -0.318963,-0.11028 -0.602485,-0.24813 -0.248083,-0.16541 -0.425284,-0.38596 -0.177201,-0.22056 -0.177201,-0.44112 z m 6.095729,7.9124 q -0.283523,0 -0.496164,0.16542 -0.212641,0.16542 -0.212641,0.38597 v 8.02269 q 0,0.24812 0.212641,0.41354 0.212641,0.16542 0.496164,0.16542 h 6.060288 q 0.318962,0 0.531605,-0.16542 0.212641,-0.16542 0.212641,-0.41354 v -8.02269 q 0,-0.22055 -0.212641,-0.38597 -0.212643,-0.16542 -0.531605,-0.16542 z"
       style="font-style:normal;font-variant:normal;font-weight:normal;font-stretch:normal;font-size:medium;line-height:1.25;font-family:Bitwise;-inkscape-font-specification:Bitwise;letter-spacing:0px;word-spacing:0px;fill:#000000;fill-opacity:1;stroke:none;stroke-width:0.8002063"
       id="path4525" />
    <path
       d="m 58.085231,272.99656 q 0,-0.0827 0.03544,-0.13785 0.03544,-0.0827 0.106327,-0.13785 0.07088,-0.0827 0.141761,-0.13784 0.07089,-0.0551 0.177201,-0.0551 h 2.055538 q 0.106316,0 0.177201,0.0551 0.106316,0.0551 0.177201,0.11027 0.07089,0.0551 0.106316,0.13785 0.07089,0.0827 0.07089,0.16542 v 10.44878 q 0,0.0827 0.07088,0.19299 0.07088,0.0827 0.177202,0.16542 0.141761,0.0551 0.283522,0.11027 0.141761,0.0276 0.283523,0.0276 h 8.399346 q 0.07089,0 0.177202,-0.0276 0.141761,-0.0551 0.212641,-0.11027 0.106316,-0.0551 0.177201,-0.11028 0.07089,-0.0827 0.07089,-0.16541 v -10.5315 q 0,-0.0827 0.03544,-0.16542 0.07088,-0.11028 0.141761,-0.16542 0.106316,-0.0827 0.212641,-0.11027 0.141761,-0.0551 0.248082,-0.0551 h 1.842894 q 0.141762,0 0.248083,0.0551 0.106316,0.0276 0.177201,0.11027 0.106316,0.0551 0.177201,0.16542 0.07089,0.0827 0.07089,0.16542 v 18.69202 q 0,0.11028 -0.07089,0.22056 -0.07088,0.11028 -0.177201,0.19298 -0.106316,0.11029 -0.248082,0.16542 -0.14176,0.0827 -0.283522,0.0827 h -3.331386 q -0.141761,0 -0.283523,-0.0551 -0.141761,-0.0551 -0.283522,-0.13785 -0.141761,-0.0827 -0.212641,-0.19299 -0.07089,-0.11027 -0.07089,-0.22055 v -5.01763 q 0,-0.11027 -0.07089,-0.22055 -0.07088,-0.0827 -0.212642,-0.16542 -0.106316,-0.0551 -0.248081,-0.11027 -0.106328,-0.0276 -0.248083,-0.0276 h -8.505678 q -0.283522,0 -0.602485,-0.0827 -0.318962,-0.0827 -0.602485,-0.22055 -0.248081,-0.16542 -0.425282,-0.3584 -0.177203,-0.19299 -0.177203,-0.41354 z"
       style="font-style:normal;font-variant:normal;font-weight:normal;font-stretch:normal;font-size:medium;line-height:1.25;font-family:Bitwise;-inkscape-font-specification:Bitwise;letter-spacing:0px;word-spacing:0px;fill:#000000;fill-opacity:1;stroke:none;stroke-width:0.8002063"
       id="path4527" />
    <path
       d="m 79.420282,268.42004 h 1.772014 q 0.318962,0 0.531603,0.16542 0.212643,0.16541 0.212643,0.38597 v 3.52887 h 3.86299 q 0.141761,0 0.283523,0.0827 0.141761,0.0551 0.248082,0.16542 0.106316,0.0827 0.177201,0.19298 0.07089,0.11029 0.07089,0.22056 v 2.89478 q 0,0.0827 -0.07089,0.19299 -0.03544,0.0827 -0.141761,0.16542 -0.07089,0.0551 -0.177201,0.11027 -0.106316,0.0551 -0.212643,0.0551 h -4.040191 v 7.03018 q 0,0.0551 0.03544,0.13785 0.03544,0.0827 0.106317,0.16541 0.106316,0.0551 0.177201,0.11028 0.106316,0.0276 0.212642,0.0276 h 1.913775 q 0.106316,0 0.212641,0.0551 0.106317,0.0275 0.177202,0.11028 0.106327,0.0551 0.141762,0.16541 0.07089,0.0827 0.07089,0.16542 v 1.0752 q 0,0.24813 -0.177203,0.41354 -0.177201,0.16542 -0.460723,0.16542 h -4.926199 q -0.283523,0 -0.496164,-0.16542 -0.212642,-0.16541 -0.212642,-0.38597 v -10.8899 h -1.453052 q -0.106316,0 -0.212641,-0.0275 -0.07088,-0.0276 -0.177202,-0.0827 -0.07089,-0.0827 -0.141761,-0.13785 -0.03544,-0.0827 -0.03544,-0.16542 v -1.46117 q 0,-0.0551 0.03544,-0.11028 0.03544,-0.0827 0.07089,-0.13785 0.07089,-0.0551 0.141762,-0.0827 0.106316,-0.0551 0.177201,-0.0551 h 1.594812 v -3.52888 q 0,-0.22055 0.212643,-0.38597 0.212641,-0.16542 0.496164,-0.16542 z"
       style="font-style:normal;font-variant:normal;font-weight:normal;font-stretch:normal;font-size:medium;line-height:1.25;font-family:Bitwise;-inkscape-font-specification:Bitwise;letter-spacing:0px;word-spacing:0px;fill:#000000;fill-opacity:1;stroke:none;stroke-width:0.8002063"
       id="path4529" />
    <path
       d="m 89.485323,273.35495 q 0,-0.16541 0.106316,-0.33082 0.141761,-0.16542 0.354402,-0.2757 0.212643,-0.13784 0.425284,-0.19298 0.248081,-0.0827 0.496164,-0.0827 h 13.573631 q 0.21264,0 0.46072,0.0827 0.24808,0.0827 0.42528,0.22055 0.21265,0.11028 0.35441,0.30326 0.14176,0.16542 0.14176,0.35841 v 5.37602 q 0,0.13785 -0.10632,0.2757 -0.10631,0.11027 -0.28352,0.22055 -0.14176,0.11028 -0.31896,0.19299 -0.1772,0.0551 -0.35441,0.0551 h -9.746073 q -0.177202,0 -0.318963,0.11028 -0.141761,0.11027 -0.141761,0.24812 v 3.77701 q 0,0.0827 0.07089,0.19298 0.106316,0.0827 0.248082,0.0827 h 7.33614 q 0.10631,0 0.21264,-0.0827 0.14176,-0.11028 0.14176,-0.19298 v -1.37848 q 0,-0.11027 0.14176,-0.22055 0.14176,-0.11028 0.28353,-0.11028 h 2.30361 q 0.10633,0 0.1772,0.0275 0.10632,0.0276 0.17721,0.0827 0.0709,0.0551 0.10631,0.13785 0.0709,0.0551 0.0709,0.13785 v 3.03263 q 0,0.13785 -0.10632,0.27569 -0.10632,0.13785 -0.24808,0.2757 -0.14176,0.11027 -0.31896,0.19298 -0.1772,0.0551 -0.35441,0.0551 H 90.867494 q -0.248083,0 -0.496165,-0.0827 -0.248081,-0.0827 -0.460723,-0.19298 -0.177202,-0.13785 -0.318962,-0.30326 -0.106317,-0.19299 -0.106317,-0.35841 z m 5.386922,1.26819 q -0.141761,0 -0.248082,0.0827 -0.07088,0.0827 -0.07088,0.16542 v 2.28826 q 0,0.11028 0.07088,0.19298 0.106317,0.0551 0.248082,0.0551 h 7.300695 q 0.10632,0 0.21265,-0.0551 0.10631,-0.0827 0.10631,-0.19298 v -2.28826 q 0,-0.0827 -0.10631,-0.16542 -0.10633,-0.0827 -0.21265,-0.0827 z"
       style="font-style:normal;font-variant:normal;font-weight:normal;font-stretch:normal;font-size:medium;line-height:1.25;font-family:Bitwise;-inkscape-font-specification:Bitwise;letter-spacing:0px;word-spacing:0px;fill:#000000;fill-opacity:1;stroke:none;stroke-width:0.8002063"
       id="path4531" />
  </g>
</svg>
