<?xml version="1.0" standalone="no"?>
<!DOCTYPE svg PUBLIC "-//W3C//DTD SVG 20010904//EN"
 "http://www.w3.org/TR/2001/REC-SVG-20010904/DTD/svg10.dtd">
<svg version="1.0" xmlns="http://www.w3.org/2000/svg"
 width="260.000000pt" height="260.000000pt" viewBox="0 0 260.000000 260.000000"
 preserveAspectRatio="xMidYMid meet">
<metadata>
Created by potrace 1.11, written by Peter Selinger 2001-2013
</metadata>
<g transform="translate(0.000000,260.000000) scale(0.100000,-0.100000)"
fill="#000000" stroke="none">
<path d="M0 1300 l0 -1300 1300 0 1300 0 0 1300 0 1300 -1300 0 -1300 0 0
-1300z m905 840 c50 -6 116 -18 148 -27 54 -15 58 -18 53 -42 -3 -14 -10 -64
-16 -111 -6 -47 -13 -102 -16 -122 l-6 -38 -121 1 c-179 1 -252 -31 -301 -133
-24 -51 -54 -184 -43 -194 3 -3 23 6 44 20 63 42 145 66 221 66 145 0 232 -53
287 -175 54 -117 69 -193 68 -345 -1 -214 -44 -343 -152 -450 -65 -66 -133
-96 -248 -110 -152 -20 -301 25 -391 118 -118 122 -173 336 -174 677 0 99 5
218 12 265 46 341 186 548 402 595 78 17 119 18 233 5z m1265 -485 l0 -475 85
0 85 0 0 -165 0 -165 -85 0 -85 0 -2 -168 -3 -167 -182 -3 -183 -2 0 170 0
170 -219 0 c-201 0 -220 2 -225 17 -2 10 -18 75 -35 145 l-30 127 65 148 c90
203 285 577 411 786 l34 57 185 0 184 0 0 -475z"/>
<path d="M654 1209 c-40 -9 -42 -12 -46 -52 -3 -23 -1 -78 4 -122 17 -157 76
-230 167 -205 72 19 104 83 104 210 0 110 -14 155 -55 169 -37 13 -116 13
-174 0z"/>
<path d="M1722 1503 c-44 -93 -96 -203 -116 -245 l-35 -78 120 0 119 0 0 245
c0 135 -1 245 -3 245 -2 0 -40 -75 -85 -167z"/>
</g>
</svg>
